<?xml version="1.0" encoding="UTF-8"?><svg id="Calque_1" xmlns="http://www.w3.org/2000/svg" viewBox="0 0 12 16"><defs><style>.cls-1{fill:#dddd27;}</style></defs><path class="cls-1" d="m0,6C0,2.69,2.69,0,6,0c3.31,0,6,2.69,6,6,0,1.62-.66,3.18-1.83,4.31-.2.2-.36.4-.45.62l-.76,1.77c-.08.18-.26.3-.46.3H3.5c-.2,0-.38-.12-.46-.3l-.76-1.77c-.11-.23-.26-.44-.45-.62C.66,9.18,0,7.63,0,6Zm3,8.5c0-.28.22-.5.5-.5h5c.28,0,.5.22.5.5s-.22.5-.5.5l-.22.45c-.17.34-.52.55-.89.55h-2.76c-.38,0-.72-.21-.89-.55l-.22-.45c-.28,0-.5-.22-.5-.5Z"/><path d="m3.5,15c-.84.02-.76-1-.17-1.01.43,0,4.56-.02,5.17.01s.77.91,0,1c-.38.83-.19,1-.95,1-.81,0-3.08,0-3.08,0,0,0-.52-.07-.72-.42s-.25-.58-.25-.58Z"/></svg>